<?xml version="1.0" standalone="no"?>
<!DOCTYPE svg PUBLIC "-//W3C//DTD SVG 20010904//EN"
 "http://www.w3.org/TR/2001/REC-SVG-20010904/DTD/svg10.dtd">
<svg version="1.0" xmlns="http://www.w3.org/2000/svg"
 width="400.000000pt" height="400.000000pt" viewBox="0 0 400.000000 400.000000"
 preserveAspectRatio="xMidYMid meet">

<g transform="translate(0.000000,400.000000) scale(0.100000,-0.100000)"
fill="#2089EF" stroke="none">
<path d="M1905 3420 c-293 -31 -518 -180 -727 -482 -171 -246 -268 -503 -340
-903 -17 -94 -17 -419 0 -515 17 -91 64 -242 105 -330 156 -342 470 -621 782
-697 229 -55 341 -55 570 0 410 99 787 527 879 995 34 175 30 459 -10 639 -8
37 -17 84 -20 103 -12 71 -78 281 -116 370 -171 392 -417 666 -691 768 -125
47 -292 67 -432 52z m248 -295 c168 -35 334 -167 476 -378 46 -68 133 -246
169 -347 47 -130 69 -219 102 -406 16 -91 13 -356 -4 -444 -42 -214 -135 -387
-292 -545 -321 -325 -757 -355 -1103 -79 -294 236 -440 607 -391 989 38 289
90 467 201 688 118 235 262 394 434 477 120 59 268 75 408 45z"/>
<path d="M1765 2858 c-54 -32 -191 -211 -254 -335 -120 -236 -200 -556 -189
-761 3 -63 7 -77 27 -93 28 -23 88 -25 118 -4 26 18 43 85 43 172 0 81 36 259
80 393 51 158 155 345 230 415 70 65 99 145 67 186 -12 15 -69 39 -91 39 -6 0
-20 -6 -31 -12z"/>
</g>
</svg>
